# xmcd
#
# Track frame offsets: 
#        179
#        15101
#        30897
#        42575
#        55595
#        66932
#        81382
#        95131
#        114739
#        125699
#        137258
#        149969
#
# Disc length: 2238 seconds
#
# Revision: 6
# Processed by: cddbd v1.5.2PL0 Copyright (c) Steve Scherf et al.
# Submitted via: ExactAudioCopyFreeDBPlugin 1.0
#
DISCID=a708bc0c
DTITLE=JOHNNY CASH - 1970 - Johnny Cash - Hello, I'm Johnny Cash
DYEAR=1970
DGENRE=Country
TTITLE0=Southwind
TTITLE1=The devil to pay
TTITLE2='Cause I love you
TTITLE3=See Ruby fall
TTITLE4=Route #1, box 144
TTITLE5=Sing a traveling song
TTITLE6=If I were a carpenter
TTITLE7=To beat the devil
TTITLE8=Blistered
TTITLE9=Wrinkled, crinkled, wadded dollar bill
TTITLE10=I've got a thing about trains
TTITLE11=Jesus was a carpenter
EXTD=
EXTT0=
EXTT1=
EXTT2=
EXTT3=
EXTT4=
EXTT5=
EXTT6=
EXTT7=
EXTT8=
EXTT9=
EXTT10=
EXTT11=
PLAYORDER=
